#N canvas 1194 333 448 521 12;
#X obj 99 137 +;
#X floatatom 129 114 5 0 0 1 grain\ dur - - 0;
#X obj 159 137 * 44.1;
#X obj 66 161 pack f f f;
#X obj 240 161 samplerate~;
#X obj 240 137 loadbang;
#X obj 240 185 / 1000;
#X msg 66 185 \$1 \, \$2 \$3;
#X obj 66 209 line~;
#X obj 66 405 *~;
#N canvas 794 342 450 300 envelope~ 1;
#X obj 50 137 cos~;
#X obj 50 187 +~ 0.5;
#X obj 50 162 *~ -0.5;
#X obj 50 217 outlet~;
#X text 93 133 // 'rounds it';
#X text 109 159 // scales it to 0-1;
#X obj 50 90 line~;
#X msg 50 66 0 \, 1 \$1;
#X obj 50 43 inlet;
#X connect 0 0 2 0;
#X connect 1 0 3 0;
#X connect 2 0 1 0;
#X connect 6 0 0 0;
#X connect 7 0 6 0;
#X connect 8 0 7 0;
#X restore 84 381 pd envelope~;
#X obj 66 69 t f b;
#X obj 110 69 s \$0-bang1;
#X obj 84 333 r \$0-bang1;
#X obj 84 357 f;
#X obj 66 93 t f f;
#X obj 7 10 inlet;
#X obj 66 532 outlet~;
#X msg 147 209 set \$1-arrayGrao;
#X floatatom 316 29 5 0.1 2 0 speed - - 0;
#X obj 316 77 t b f;
#X obj 276 106 / 1;
#X obj 129 532 outlet~;
#X obj 66 490 *~;
#X obj 101 490 *~;
#X obj 175 443 expr 1-$f1;
#X obj 175 419 f;
#X obj 66 45 unpack f f f f f;
#N canvas 0 22 450 278 (subpatch) 0;
#X text 0 0 plugdatainfo <?xml version="1.0" encoding="UTF-8"?> <plugdatainfo/>;
#X coords 0 1 100 -1 1 1 1;
#X restore 0 0 graph;
#X obj 66 294 tabread4~;
#X connect 0 0 3 1;
#X connect 1 0 2 0;
#X connect 1 0 14 1;
#X connect 1 0 21 0;
#X connect 2 0 0 1;
#X connect 3 0 7 0;
#X connect 4 0 6 0;
#X connect 5 0 4 0;
#X connect 6 0 2 1;
#X connect 7 0 8 0;
#X connect 8 0 29 0;
#X connect 9 0 23 0;
#X connect 9 0 24 0;
#X connect 10 0 9 1;
#X connect 11 0 15 0;
#X connect 11 1 12 0;
#X connect 13 0 14 0;
#X connect 14 0 10 0;
#X connect 15 0 3 0;
#X connect 15 1 0 0;
#X connect 16 0 27 0;
#X connect 18 0 29 0;
#X connect 19 0 20 0;
#X connect 20 0 21 0;
#X connect 20 1 21 1;
#X connect 21 0 3 2;
#X connect 23 0 17 0;
#X connect 24 0 22 0;
#X connect 25 0 23 1;
#X connect 26 0 25 0;
#X connect 26 0 24 1;
#X connect 27 0 11 0;
#X connect 27 1 1 0;
#X connect 27 2 18 0;
#X connect 27 3 19 0;
#X connect 27 4 26 0;
#X connect 29 0 9 0;
